<?xml version="1.0" standalone="no"?>
<!DOCTYPE svg PUBLIC "-//W3C//DTD SVG 20010904//EN"
 "http://www.w3.org/TR/2001/REC-SVG-20010904/DTD/svg10.dtd">
<svg version="1.0" xmlns="http://www.w3.org/2000/svg"
 width="512.000000pt" height="512.000000pt" viewBox="0 0 512.000000 512.000000"
 preserveAspectRatio="xMidYMid meet">
<metadata>
Created by potrace 1.11, written by Peter Selinger 2001-2013
</metadata>
<g transform="translate(0.000000,512.000000) scale(0.100000,-0.100000)"
fill="#000000" stroke="none">
<path d="M2424 4781 c-2 -2 -23 -5 -46 -6 -46 -2 -136 -13 -178 -21 -14 -2
-41 -7 -60 -10 -58 -9 -75 -12 -75 -14 0 -1 -11 -3 -25 -6 -14 -2 -36 -8 -50
-13 -20 -8 -66 -20 -100 -26 -3 0 -15 -6 -27 -13 -13 -7 -23 -10 -23 -6 0 3
-7 1 -15 -6 -8 -7 -15 -9 -15 -5 0 4 -7 1 -17 -6 -9 -8 -19 -13 -22 -13 -6 2
-27 -6 -78 -28 -16 -6 -31 -11 -35 -10 -5 1 -8 -2 -8 -8 0 -5 -4 -10 -10 -10
-15 0 -120 -51 -162 -78 -21 -13 -44 -22 -52 -19 -10 4 -13 1 -9 -9 3 -7 0
-14 -5 -14 -12 0 -134 -79 -143 -93 -4 -5 -12 -6 -19 -2 -8 5 -11 4 -6 -3 8
-13 -28 -35 -39 -24 -5 4 -5 2 -2 -4 4 -7 -5 -19 -19 -29 -14 -9 -33 -24 -43
-33 -10 -9 -46 -42 -81 -72 -75 -65 -69 -60 -144 -144 -44 -49 -62 -63 -69
-54 -6 9 -7 7 -3 -6 7 -21 -11 -49 -27 -39 -5 3 -7 2 -4 -4 8 -12 -21 -55 -33
-48 -5 3 -12 0 -16 -6 -4 -8 -3 -9 4 -5 22 13 12 -9 -17 -41 -16 -18 -26 -34
-23 -37 3 -3 1 -6 -5 -6 -6 0 -13 -9 -16 -21 -3 -12 -10 -18 -17 -14 -6 3 -10
3 -9 -2 3 -12 -17 -58 -33 -74 -13 -14 -43 -74 -36 -74 1 0 -6 -13 -18 -30
-11 -16 -25 -42 -32 -57 -6 -16 -16 -28 -22 -28 -6 0 -9 -4 -6 -9 8 -12 -4
-42 -14 -36 -5 3 -6 -3 -3 -13 2 -11 -1 -25 -9 -33 -7 -8 -15 -23 -16 -34 -2
-11 -8 -22 -13 -23 -5 -2 -7 -8 -4 -13 3 -4 -1 -19 -10 -32 -8 -13 -12 -27 -8
-30 3 -4 1 -7 -5 -7 -6 0 -9 -7 -5 -17 4 -10 2 -14 -4 -10 -6 4 -9 -3 -7 -18
1 -14 -2 -25 -7 -25 -6 0 -9 -6 -7 -12 5 -26 -12 -69 -25 -62 -9 5 -9 4 0 -6
8 -9 9 -19 2 -32 -5 -10 -6 -18 -2 -18 4 0 -2 -7 -13 -16 -10 -8 -13 -13 -6
-9 8 4 12 -1 12 -14 0 -13 -7 -21 -17 -21 -11 0 -14 -3 -8 -8 6 -4 10 -13 9
-19 -1 -7 -2 -22 -3 -34 -1 -13 -5 -18 -13 -13 -10 6 -10 4 -2 -7 5 -8 9 -20
8 -26 -1 -7 -2 -20 -3 -29 0 -8 -4 -13 -9 -11 -4 3 -7 -19 -6 -49 1 -31 -3
-54 -9 -54 -6 0 -7 -3 -4 -7 4 -3 1 -13 -6 -21 -8 -11 -8 -14 0 -9 6 4 14 3
18 -3 3 -5 1 -10 -4 -10 -6 0 -10 -4 -9 -9 2 -5 -6 -17 -17 -26 -20 -16 -20
-16 2 -5 19 9 23 8 23 -5 0 -9 -5 -26 -11 -37 -8 -15 -8 -19 0 -14 6 4 11 3
11 -3 0 -5 -8 -15 -17 -20 -17 -10 -17 -10 -1 -11 11 0 16 -7 15 -20 -1 -14
-6 -19 -16 -15 -12 5 -11 2 2 -13 20 -22 22 -36 5 -26 -10 5 -10 4 -1 -6 10
-11 9 -16 -5 -27 -9 -8 -12 -12 -5 -9 6 4 14 2 17 -3 4 -5 -2 -12 -11 -14 -17
-4 -17 -5 -1 -6 13 -1 17 -8 16 -26 -1 -14 -7 -25 -13 -25 -5 0 -2 -5 8 -11
14 -8 16 -14 6 -25 -6 -8 -8 -14 -3 -14 5 0 10 -16 10 -35 1 -19 -2 -33 -5
-30 -4 2 -8 -5 -8 -16 -1 -10 3 -19 8 -19 6 0 7 5 4 10 -3 6 -1 10 4 10 14 0
14 -13 -1 -28 -9 -9 -9 -12 1 -12 7 0 9 -4 6 -10 -3 -5 -2 -10 3 -10 5 0 9 -7
9 -15 0 -13 -4 -12 -21 2 -20 18 -20 17 -6 -2 8 -11 19 -23 23 -26 4 -3 9 -19
11 -35 2 -16 5 -29 6 -29 1 0 4 -12 6 -27 3 -16 0 -28 -6 -28 -5 0 -10 -5 -10
-11 0 -6 7 -8 16 -5 8 3 12 2 9 -3 -3 -5 -1 -12 5 -16 5 -3 10 -11 10 -16 0
-6 -4 -7 -10 -4 -5 3 -10 2 -10 -4 0 -5 5 -11 10 -13 6 -2 12 -13 13 -26 0
-12 6 -22 11 -22 5 0 6 -3 3 -6 -3 -4 -1 -16 5 -28 10 -19 10 -20 -5 -7 -24
19 -21 6 3 -17 11 -10 21 -27 23 -38 2 -10 11 -36 20 -58 9 -21 17 -40 17 -42
0 -1 5 -15 11 -31 6 -15 10 -30 9 -32 -1 -2 4 -7 11 -11 7 -5 12 -24 11 -44
-1 -20 3 -36 8 -36 5 0 8 6 6 13 -1 6 -1 9 1 5 3 -4 4 -10 3 -14 -1 -4 4 -11
12 -15 10 -7 10 -9 1 -9 -7 0 -13 -4 -13 -10 0 -5 7 -6 17 -3 10 4 14 2 10 -4
-4 -6 -1 -14 5 -17 7 -3 2 -4 -12 -1 -21 4 -20 2 8 -12 17 -9 32 -21 32 -26 0
-5 -7 -4 -15 3 -13 11 -14 10 -9 -3 3 -9 14 -19 25 -22 10 -4 19 -13 19 -21 0
-8 4 -14 8 -14 4 0 9 -11 10 -25 1 -14 -3 -25 -10 -25 -6 0 -8 -3 -5 -6 4 -4
13 -2 20 4 11 9 17 6 27 -16 7 -15 13 -30 12 -34 -1 -5 3 -8 9 -8 8 0 7 -6 -2
-16 -12 -15 -11 -16 10 -9 16 5 21 4 17 -4 -4 -6 0 -14 9 -17 12 -5 13 -9 4
-21 -7 -7 -19 -11 -28 -8 -13 5 -14 4 -3 -6 9 -10 15 -10 24 -1 13 13 52 -3
43 -19 -4 -5 -1 -9 4 -9 6 0 11 -9 11 -20 0 -11 5 -20 10 -20 6 0 21 -11 33
-24 59 -64 76 -86 68 -86 -6 0 -15 8 -20 18 -9 14 -10 13 -7 -8 2 -20 8 -24
28 -22 27 3 46 -22 26 -34 -6 -4 -8 -3 -5 3 4 6 0 14 -8 17 -13 4 -14 2 -5
-14 6 -11 8 -25 5 -30 -3 -6 -1 -10 4 -10 6 0 11 7 11 15 0 27 24 16 78 -37
50 -48 53 -53 36 -65 -16 -12 -15 -13 14 -7 22 5 32 3 32 -6 0 -7 -7 -10 -14
-7 -10 4 -13 1 -9 -9 6 -17 15 -18 31 -2 9 9 12 9 12 -1 0 -7 4 -10 9 -7 15
10 20 -22 5 -34 -8 -7 -14 -16 -14 -21 0 -5 9 0 20 11 20 20 20 20 100 -42 67
-51 79 -65 76 -85 -3 -13 -1 -21 5 -18 5 4 7 10 4 15 -3 5 -1 11 5 15 5 3 10
-1 10 -9 0 -24 38 -40 57 -24 14 11 15 11 5 -8 -6 -12 -7 -26 -1 -35 5 -7 9
-9 9 -4 0 6 5 3 10 -5 7 -10 10 -11 10 -2 0 7 -7 15 -15 18 -8 4 -12 10 -9 16
3 5 15 -1 25 -14 19 -22 19 -23 2 -36 -16 -12 -14 -12 15 -7 24 4 32 2 26 -6
-4 -8 -3 -9 4 -5 6 4 9 13 6 21 -4 8 -10 13 -14 10 -5 -3 -11 -1 -14 4 -13 20
12 20 30 0 15 -17 16 -23 5 -41 -7 -11 -8 -17 -3 -14 6 3 12 -1 15 -8 5 -12
11 -12 31 -3 13 6 22 15 20 19 -3 5 -1 8 4 8 12 0 26 -30 23 -47 -2 -16 9 -16
29 -2 13 10 13 10 0 6 -10 -3 -16 2 -16 14 0 12 4 15 12 9 6 -6 14 -6 18 -2 4
4 6 0 4 -8 -2 -9 5 -14 22 -15 20 0 25 -5 26 -25 2 -40 3 -43 18 -31 10 9 17
7 27 -6 12 -15 12 -16 -3 -10 -12 4 -15 2 -11 -9 4 -11 9 -12 16 -5 15 15 30
14 21 -1 -4 -6 -3 -8 4 -4 6 3 13 2 17 -4 3 -5 11 -10 18 -10 6 0 2 7 -9 16
-17 14 -17 15 -1 10 11 -4 16 -2 12 5 -4 6 -14 8 -22 5 -9 -4 -11 -2 -7 6 5 8
2 9 -9 5 -19 -7 -33 8 -17 18 6 4 17 1 25 -5 8 -6 19 -9 25 -5 6 4 9 1 8 -7
-2 -9 6 -12 25 -11 15 1 27 -2 27 -8 0 -6 4 -7 10 -4 5 3 10 1 10 -5 0 -6 4
-9 9 -6 14 9 43 -5 38 -18 -7 -16 19 -50 28 -37 3 6 17 11 30 11 13 0 26 6 28
13 4 9 6 9 6 -1 1 -7 6 -10 11 -7 6 3 10 1 10 -5 0 -6 -7 -10 -16 -8 -9 2 -18
-4 -19 -13 -2 -9 3 -16 11 -16 7 0 11 4 8 9 -9 15 43 8 56 -7 7 -9 15 -13 18
-10 9 9 32 -17 25 -29 -3 -6 3 -3 14 7 13 11 23 14 27 8 4 -6 13 -8 20 -5 9 3
17 -3 21 -16 4 -12 9 -19 12 -17 2 3 0 14 -6 25 -8 16 -7 21 5 26 9 4 24 1 32
-6 13 -11 15 -10 9 5 -5 15 -4 16 12 7 13 -6 17 -17 14 -30 -3 -12 0 -20 6
-20 7 0 9 4 6 10 -3 5 -1 18 5 27 10 16 11 16 6 1 -2 -9 1 -22 9 -28 11 -9 12
-7 8 8 -2 11 0 23 6 26 5 4 10 -2 10 -11 2 -49 4 -56 15 -42 15 19 35 22 51 9
9 -7 15 -8 20 -1 7 12 41 -4 62 -29 11 -13 12 -13 7 3 -8 21 -52 45 -77 41
-15 -2 -16 0 -6 12 8 10 16 11 22 5 5 -5 16 -7 25 -4 10 4 13 2 8 -5 -4 -7 -1
-12 10 -12 9 0 23 -8 31 -17 13 -16 13 -16 4 4 -6 12 -16 23 -23 26 -7 3 -3 4
9 4 12 -1 20 -4 17 -8 -2 -4 3 -12 11 -19 12 -10 13 -16 3 -29 -12 -14 -11
-14 4 -2 13 9 15 18 8 31 -9 17 -4 30 12 30 4 0 8 -5 8 -11 0 -5 -5 -7 -12 -3
-7 5 -8 3 -3 -6 6 -10 11 -9 22 5 8 12 13 14 13 6 0 -11 3 -11 14 -2 12 10 14
7 11 -18 -2 -17 1 -34 7 -37 7 -4 8 -3 4 4 -13 21 5 34 20 15 13 -17 14 -17 7
2 l-6 20 24 -20 c17 -15 20 -16 10 -3 -11 15 -11 19 3 24 9 3 13 10 10 15 -3
5 0 9 5 9 15 0 14 -13 -1 -29 -10 -11 -10 -13 0 -7 7 5 12 1 13 -11 0 -17 1
-17 8 0 9 23 19 23 37 0 14 -17 14 -16 5 4 -7 14 -18 20 -30 18 -14 -3 -18 1
-14 12 5 12 7 12 14 1 8 -12 13 -4 10 15 -1 4 8 3 18 -3 12 -6 18 -16 15 -25
-8 -19 -5 -19 40 0 33 14 37 14 43 -1 4 -11 8 -12 13 -4 4 7 13 9 19 6 6 -4 8
-12 5 -18 -4 -7 -2 -8 4 -4 9 5 9 12 0 26 -10 15 -15 17 -27 7 -11 -9 -13 -9
-8 0 9 14 -29 11 -58 -5 -17 -8 -21 -7 -21 7 0 13 9 17 46 16 25 -1 50 1 55 4
6 3 17 6 25 6 8 0 22 4 30 10 13 8 13 7 1 -8 -10 -13 -10 -17 -1 -17 7 0 10
-8 7 -20 -3 -12 -1 -18 5 -14 5 3 8 14 5 24 -2 10 -1 24 4 31 6 10 9 11 9 2 0
-7 5 -13 11 -13 5 0 7 5 4 10 -4 6 -3 10 2 9 4 -1 10 -1 13 1 3 1 16 3 30 6
18 3 21 2 10 -5 -8 -5 -17 -8 -21 -5 -4 2 -12 -3 -19 -11 -14 -17 -7 -19 18
-6 9 4 32 11 51 15 29 5 32 4 21 -9 -11 -13 -10 -14 4 -9 24 9 21 38 -4 31
-11 -3 -23 0 -27 5 -3 6 -2 9 3 6 5 -3 18 -2 29 2 12 4 31 0 50 -12 25 -14 32
-15 32 -4 0 8 -5 13 -11 12 -6 -2 -8 -1 -3 1 4 3 4 9 1 15 -4 6 1 6 13 -1 11
-6 23 -7 27 -4 3 3 6 1 6 -5 0 -7 -4 -12 -10 -12 -5 0 -10 -5 -10 -12 0 -8 6
-7 16 4 16 16 11 43 -6 33 -5 -3 -11 -1 -14 4 -4 5 2 8 11 6 10 -1 24 2 31 8
6 5 12 6 12 2 0 -4 7 -2 15 5 8 7 15 9 15 5 0 -4 12 0 26 10 14 9 28 14 31 11
4 -3 12 -1 20 6 10 8 12 8 8 -4 -4 -9 0 -15 9 -15 8 0 13 4 10 9 -7 11 14 38
29 38 6 0 2 -6 -8 -14 -18 -13 -17 -13 7 -14 21 0 26 5 22 21 -2 11 -1 17 3
13 3 -3 12 -1 20 5 7 6 13 8 13 4 0 -5 9 0 19 9 19 17 19 17 16 -1 -1 -10 -8
-17 -14 -16 -17 4 -13 -14 5 -21 8 -3 12 -2 9 4 -7 11 5 17 45 24 14 3 27 5
30 6 3 2 8 2 12 1 5 0 7 2 5 7 -1 4 2 8 7 9 5 0 13 8 18 17 5 9 14 14 20 10 5
-4 5 4 -2 17 -7 13 -9 21 -5 16 5 -4 19 2 31 14 13 12 34 22 48 22 15 0 23 4
19 10 -3 6 -1 7 5 3 9 -5 9 -13 1 -29 -10 -21 -10 -21 6 -2 8 11 13 25 11 31
-3 7 1 18 9 24 12 10 13 8 10 -9 -2 -11 1 -24 7 -27 7 -4 8 -2 4 4 -4 7 -3 12
3 12 6 0 8 8 5 18 -5 14 -3 14 12 -3 12 -15 15 -16 11 -3 -6 16 22 32 51 29
15 -2 16 15 0 25 -7 5 -8 2 -3 -7 5 -8 5 -11 0 -7 -4 4 -14 3 -22 -3 -9 -9
-13 -8 -13 0 0 6 5 11 11 11 5 0 7 5 3 12 -4 6 -3 8 3 5 6 -4 18 2 28 13 17
19 41 18 29 -1 -3 -5 -9 -7 -14 -4 -5 3 -11 1 -14 -4 -3 -5 0 -11 8 -14 8 -3
19 5 26 18 7 14 17 22 22 19 5 -3 3 -13 -4 -22 -10 -15 -10 -15 2 -4 8 7 15
18 16 25 0 7 2 20 2 30 1 9 9 17 17 17 8 0 15 4 15 10 0 5 8 6 17 3 13 -5 15
-3 9 12 -4 11 -4 16 0 13 4 -4 15 4 26 17 11 14 28 30 39 35 15 9 17 8 12 -6
-5 -12 -3 -15 6 -10 7 5 11 17 8 27 -5 17 -3 18 27 3 l31 -15 -25 21 c-19 15
-20 19 -6 13 15 -5 18 -3 13 9 -3 10 0 19 9 22 9 3 13 10 10 15 -8 13 22 7 36
-7 7 -7 16 -12 20 -12 4 0 -1 9 -13 21 -19 19 -20 22 -4 39 9 10 24 17 33 15
9 -2 17 -4 17 -5 0 -7 36 -6 40 0 3 5 -3 7 -14 5 -11 -2 -25 3 -32 11 -7 9 -8
14 -1 14 6 0 14 9 17 20 6 20 7 20 26 -2 12 -15 18 -17 17 -8 -2 8 3 14 10 13
6 -2 12 2 12 8 0 6 -7 9 -15 6 -8 -4 -17 -2 -20 3 -4 6 1 10 9 10 9 0 13 6 10
14 -3 9 5 21 20 31 14 10 23 21 20 26 -3 5 1 6 9 3 8 -3 18 0 22 5 3 6 12 8
18 5 7 -4 9 -4 5 1 -4 4 -3 16 3 27 6 11 8 22 6 25 -3 3 -13 -9 -22 -27 -9
-18 -19 -29 -22 -26 -3 3 9 24 27 48 18 24 30 35 27 26 -3 -10 -3 -19 1 -22 4
-3 9 3 10 12 5 42 10 55 25 64 10 5 22 6 29 2 7 -4 8 -3 4 4 -6 11 6 16 27 13
4 0 7 4 7 10 0 6 -7 8 -15 5 -37 -15 -50 -18 -37 -8 8 5 12 11 11 13 -2 2 3
13 10 24 7 11 10 13 8 4 -3 -9 1 -16 8 -16 7 0 11 6 8 14 -4 9 0 11 13 7 18
-5 18 -5 2 6 -22 13 -23 30 -3 30 8 0 12 6 9 14 -8 21 25 48 50 41 18 -5 17
-4 -4 9 -14 9 -19 15 -12 16 7 0 10 5 7 10 -3 6 3 22 14 36 11 15 18 30 16 34
-3 5 0 12 6 16 8 5 9 3 4 -6 -6 -9 -4 -11 4 -6 7 5 10 14 7 21 -3 8 4 25 15
39 11 14 20 28 19 31 -2 31 1 36 23 30 19 -5 19 -4 5 5 -19 12 -13 40 8 40 8
0 14 5 14 11 0 5 -4 7 -10 4 -14 -9 -13 11 3 38 14 26 28 37 38 31 4 -2 11 1
15 7 4 8 3 9 -4 5 -8 -5 -12 1 -12 14 0 13 -4 19 -12 14 -7 -4 -8 -3 -4 5 4 6
11 9 15 6 5 -2 6 7 3 20 -3 15 0 25 8 25 6 0 10 6 8 12 -3 7 3 19 12 28 9 8
10 11 2 6 -21 -14 -7 43 15 61 17 14 17 14 -1 9 -15 -5 -17 -4 -8 7 7 8 9 17
5 20 -3 4 -2 7 4 7 6 0 9 11 7 25 -2 22 1 25 19 19 22 -6 22 -6 2 10 -17 13
-18 15 -3 16 9 0 19 4 22 9 4 5 -3 7 -14 4 -12 -3 -20 0 -20 6 0 7 5 9 10 6 6
-3 10 -1 10 4 0 6 -5 11 -11 11 -5 0 -7 5 -4 10 5 8 11 7 21 -1 12 -9 11 -6
-1 17 -13 26 -13 29 0 32 8 2 15 8 15 13 0 6 -4 7 -10 4 -6 -3 -10 -1 -10 4 0
6 6 11 13 11 9 0 9 2 0 8 -13 8 -13 29 0 50 5 6 5 12 0 12 -4 0 -1 5 7 10 9 6
10 10 3 10 -16 0 -9 75 8 97 10 11 10 14 2 9 -9 -5 -13 0 -13 18 0 15 7 26 18
29 16 4 16 5 0 6 -12 1 -18 9 -18 27 0 14 4 23 8 20 5 -3 9 1 9 9 0 8 -4 12
-9 9 -13 -8 -9 20 5 35 10 11 10 13 0 7 -10 -5 -13 3 -14 31 0 21 -2 48 -5 61
-2 13 -1 21 4 18 4 -2 8 4 8 14 0 10 -4 16 -8 14 -4 -3 -8 3 -9 13 0 10 -2 26
-4 36 -2 9 1 15 6 11 5 -3 9 -1 9 5 0 5 -6 12 -12 14 -9 4 -9 6 1 6 11 1 10 5
-5 16 -19 14 -19 14 1 15 16 0 17 2 6 9 -8 5 -16 17 -17 27 -2 10 -6 29 -9 43
-6 22 -5 23 12 11 10 -8 7 -1 -7 14 -18 22 -20 28 -8 23 10 -3 20 -2 23 4 4 5
3 9 -2 8 -27 -5 -35 3 -31 30 2 17 1 28 -4 25 -4 -3 -8 0 -8 5 0 6 6 11 13 12
6 0 3 4 -8 9 -12 5 -14 9 -6 9 11 1 10 5 -5 17 -10 8 -14 13 -7 10 8 -4 7 3
-2 22 -8 15 -13 38 -10 50 2 12 -1 25 -7 28 -7 5 -8 2 -3 -6 5 -9 4 -11 -4 -6
-6 4 -9 11 -6 16 3 5 -2 22 -12 37 -10 15 -13 24 -6 20 6 -4 3 10 -7 30 -10
21 -16 41 -13 45 2 5 0 8 -5 8 -9 0 -39 79 -34 93 1 4 -2 7 -7 7 -9 0 -37 60
-33 73 1 4 -2 7 -7 7 -8 0 -24 37 -22 53 1 4 -2 7 -7 7 -4 0 -16 17 -27 38
-10 20 -25 45 -33 54 -13 15 -13 20 -1 35 13 16 12 17 -2 5 -14 -10 -18 -10
-23 4 -3 9 -3 21 1 26 3 6 1 8 -5 4 -13 -8 -44 33 -35 47 3 6 1 7 -5 3 -11 -7
-17 7 -12 29 1 6 -1 7 -5 3 -7 -7 -55 43 -55 56 0 4 -11 18 -25 32 -14 14 -23
29 -20 34 2 4 -5 10 -16 13 -16 4 -20 11 -15 24 4 9 4 14 0 10 -10 -9 -65 43
-58 55 3 5 2 7 -3 6 -5 -2 -41 29 -81 69 -39 40 -72 70 -72 68 0 -2 -12 8 -27
22 -16 14 -27 30 -25 35 1 5 -2 7 -7 4 -5 -3 -24 8 -42 24 -19 16 -37 30 -41
30 -4 0 -13 6 -20 13 -7 6 -30 23 -50 37 -21 14 -38 29 -38 33 0 5 -4 6 -9 3
-5 -3 -14 1 -21 9 -7 8 -18 15 -24 15 -7 0 -21 8 -32 18 -24 22 -270 143 -341
168 -29 10 -53 21 -53 24 0 4 -6 7 -14 7 -29 0 -105 26 -100 34 3 5 -1 6 -9 3
-8 -3 -35 0 -58 7 -51 15 -43 13 -94 23 -44 10 -62 12 -120 21 -22 3 -49 7
-60 10 -11 2 -35 4 -53 4 -22 1 -31 5 -26 13 5 7 3 8 -7 2 -18 -11 -39 -14
-39 -6 0 7 -299 10 -306 3z m-904 -4196 c12 7 6 -23 -7 -36 -7 -7 -12 -6 -16
5 -4 9 -2 16 3 16 5 0 8 6 6 13 -1 6 -1 9 1 4 3 -4 8 -5 13 -2z m2044 -41
c-10 -7 -25 -19 -33 -25 -19 -17 -63 -21 -58 -6 2 7 12 11 22 9 10 -2 14 1 10
7 -4 7 0 8 11 4 12 -4 15 -3 10 6 -4 6 -4 11 1 10 24 -4 43 2 37 13 -5 7 -3 8
6 3 10 -6 9 -11 -6 -21z m-1878 -60 c-4 -9 -9 -15 -11 -12 -3 3 -3 13 1 22 4
9 9 15 11 12 3 -3 3 -13 -1 -22z m252 -73 c11 -7 10 -10 -3 -15 -20 -7 -38 1
-30 15 7 11 16 11 33 0z m146 -43 c10 -13 13 -13 25 -1 9 10 17 11 23 5 6 -6
16 -8 23 -6 22 9 27 -14 6 -26 -14 -7 -22 -7 -26 0 -5 8 -11 8 -20 0 -10 -8
-17 -6 -28 10 -8 12 -16 17 -18 11 -2 -6 -9 -3 -16 8 -10 16 -9 19 4 17 9 -2
21 -9 27 -18z m275 -44 c-8 -10 -21 -11 -47 -5 -2 1 -1 5 2 9 2 4 16 8 30 8
18 0 22 -3 15 -12z m252 -3 c7 12 9 11 9 -1 0 -13 1 -13 11 0 9 13 10 13 6 0
-5 -18 -39 -20 -43 -2 -2 8 0 8 3 1 4 -8 8 -7 14 2z"/>
<path d="M2109 353 c-12 -16 -12 -17 2 -6 9 8 19 9 25 3 6 -6 15 -5 24 1 13 9
13 10 -1 6 -9 -3 -21 -1 -26 4 -6 6 -15 3 -24 -8z"/>
<path d="M4770 2931 c0 -6 4 -13 10 -16 6 -3 7 1 4 9 -7 18 -14 21 -14 7z"/>
<path d="M335 2900 c3 -5 8 -10 11 -10 2 0 4 5 4 10 0 6 -5 10 -11 10 -5 0 -7
-4 -4 -10z"/>
<path d="M4796 2782 c-3 -5 1 -9 9 -9 8 0 12 4 9 9 -3 4 -7 8 -9 8 -2 0 -6 -4
-9 -8z"/>
<path d="M4796 2701 c-3 -5 2 -15 12 -22 15 -12 16 -12 5 2 -7 9 -10 19 -6 22
3 4 4 7 0 7 -3 0 -8 -4 -11 -9z"/>
<path d="M4806 2478 c3 -5 10 -6 15 -3 13 9 11 12 -6 12 -8 0 -12 -4 -9 -9z"/>
<path d="M4799 2313 c-13 -16 -12 -17 4 -4 16 13 21 21 13 21 -2 0 -10 -8 -17
-17z"/>
<path d="M4780 2286 c0 -2 7 -6 15 -10 8 -3 15 -1 15 4 0 6 -7 10 -15 10 -8 0
-15 -2 -15 -4z"/>
<path d="M360 2086 c0 -8 4 -17 9 -20 5 -4 7 3 4 14 -6 23 -13 26 -13 6z"/>
<path d="M355 1959 c-3 -4 2 -6 10 -5 21 3 28 13 10 13 -9 0 -18 -4 -20 -8z"/>
<path d="M390 1920 c0 -5 5 -10 11 -10 5 0 7 5 4 10 -3 6 -8 10 -11 10 -2 0
-4 -4 -4 -10z"/>
<path d="M4710 1900 c-11 -7 -11 -10 -2 -10 8 0 10 -5 6 -12 -4 -7 -3 -9 1 -5
7 6 17 37 12 37 -1 0 -9 -5 -17 -10z"/>
<path d="M435 1790 c-3 -5 -1 -10 4 -10 6 0 11 5 11 10 0 6 -2 10 -4 10 -3 0
-8 -4 -11 -10z"/>
<path d="M4664 1778 l-19 -23 23 19 c12 11 22 21 22 23 0 8 -8 2 -26 -19z"/>
<path d="M444 1758 c-4 -7 -4 -10 1 -6 4 4 14 3 22 -4 11 -8 12 -7 7 6 -7 19
-20 21 -30 4z"/>
<path d="M4675 1759 c-4 -6 -5 -12 -2 -15 2 -3 7 2 10 11 7 17 1 20 -8 4z"/>
<path d="M450 1719 c0 -5 5 -7 10 -4 6 3 10 8 10 11 0 2 -4 4 -10 4 -5 0 -10
-5 -10 -11z"/>
<path d="M475 1710 c-3 -5 -1 -10 4 -10 6 0 11 5 11 10 0 6 -2 10 -4 10 -3 0
-8 -4 -11 -10z"/>
<path d="M4638 1703 c7 -3 16 -2 19 1 4 3 -2 6 -13 5 -11 0 -14 -3 -6 -6z"/>
<path d="M490 1680 c0 -5 5 -10 11 -10 5 0 7 5 4 10 -3 6 -8 10 -11 10 -2 0
-4 -4 -4 -10z"/>
<path d="M4615 1660 c-3 -5 -1 -10 4 -10 6 0 11 5 11 10 0 6 -2 10 -4 10 -3 0
-8 -4 -11 -10z"/>
<path d="M507 1640 c10 -11 19 -20 21 -20 1 0 -2 9 -8 20 -6 11 -15 20 -20 20
-6 0 -2 -9 7 -20z"/>
<path d="M490 1620 c0 -5 5 -10 11 -10 5 0 7 5 4 10 -3 6 -8 10 -11 10 -2 0
-4 -4 -4 -10z"/>
<path d="M4595 1621 c-3 -5 -2 -12 3 -15 5 -3 9 1 9 9 0 17 -3 19 -12 6z"/>
<path d="M4601 1581 c-7 -5 -12 -14 -10 -20 2 -6 10 -2 17 9 14 22 13 23 -7
11z"/>
<path d="M4550 1525 c-13 -14 -21 -27 -18 -30 2 -3 14 9 27 25 26 37 23 39 -9
5z"/>
<path d="M4546 1482 c-3 -5 1 -9 9 -9 8 0 15 4 15 9 0 4 -4 8 -9 8 -6 0 -12
-4 -15 -8z"/>
<path d="M570 1460 c0 -5 5 -10 11 -10 5 0 7 5 4 10 -3 6 -8 10 -11 10 -2 0
-4 -4 -4 -10z"/>
<path d="M604 1436 c2 -17 36 -51 36 -36 0 6 -6 13 -14 16 -8 3 -12 12 -9 20
3 8 1 14 -5 14 -6 0 -9 -6 -8 -14z"/>
<path d="M4503 1438 c-10 -17 -11 -58 -1 -52 5 3 8 11 7 17 -3 26 2 38 13 31
7 -4 8 -3 4 4 -9 15 -13 15 -23 0z"/>
<path d="M655 1359 c-4 -6 -5 -12 -2 -15 2 -3 7 2 10 11 7 17 1 20 -8 4z"/>
<path d="M670 1340 c0 -5 5 -10 11 -10 5 0 7 5 4 10 -3 6 -8 10 -11 10 -2 0
-4 -4 -4 -10z"/>
<path d="M675 1309 c-4 -6 -5 -12 -2 -15 2 -3 7 2 10 11 7 17 1 20 -8 4z"/>
<path d="M4410 1281 c0 -7 -4 -10 -8 -7 -5 3 -9 -1 -9 -9 0 -8 4 -15 8 -15 9
0 21 31 14 38 -3 3 -5 0 -5 -7z"/>
<path d="M696 1272 c-2 -4 4 -8 14 -8 10 0 16 4 14 8 -3 4 -9 8 -14 8 -5 0
-11 -4 -14 -8z"/>
<path d="M736 1214 c-6 -15 -4 -15 11 -3 10 7 20 15 22 16 2 2 -3 3 -11 3 -9
0 -19 -7 -22 -16z"/>
<path d="M4393 1215 c0 -8 4 -12 9 -9 5 3 6 10 3 15 -9 13 -12 11 -12 -6z"/>
<path d="M750 1187 c-12 -21 -12 -21 6 -7 10 8 20 15 22 16 2 1 -1 4 -5 7 -5
3 -15 -4 -23 -16z"/>
<path d="M4370 1191 c0 -6 4 -13 10 -16 6 -3 7 1 4 9 -7 18 -14 21 -14 7z"/>
<path d="M766 1162 c-3 -5 1 -9 9 -9 8 0 12 4 9 9 -3 4 -7 8 -9 8 -2 0 -6 -4
-9 -8z"/>
<path d="M815 1141 c18 -22 18 -24 2 -18 -11 4 -16 3 -12 -4 4 -6 13 -8 21 -5
7 3 18 -2 23 -12 5 -9 12 -14 15 -11 3 3 -11 21 -31 40 -21 19 -29 23 -18 10z"/>
<path d="M4277 1118 c-14 -12 -14 -15 -2 -32 8 -11 15 -15 15 -10 0 6 -5 15
-12 22 -16 16 4 16 22 0 12 -11 12 -10 2 3 -6 9 -9 19 -5 22 11 12 -2 8 -20
-5z"/>
<path d="M4320 1120 c-9 -6 -10 -10 -3 -10 6 0 15 5 18 10 8 12 4 12 -15 0z"/>
<path d="M835 1070 c-3 -6 1 -7 9 -4 18 7 21 14 7 14 -6 0 -13 -4 -16 -10z"/>
<path d="M4207 1037 c-3 -8 1 -14 8 -14 7 0 11 6 8 14 -3 7 -6 13 -8 13 -2 0
-5 -6 -8 -13z"/>
<path d="M870 1026 c0 -2 7 -7 16 -10 8 -3 12 -2 9 4 -6 10 -25 14 -25 6z"/>
<path d="M947 993 c-12 -12 -7 -25 7 -20 17 7 42 -18 27 -27 -5 -3 -12 0 -14
6 -4 10 -6 10 -6 0 -1 -7 -6 -10 -13 -6 -6 4 -8 3 -5 -4 4 -5 15 -9 25 -7 9 1
25 -5 35 -13 10 -9 25 -17 34 -18 9 -2 -6 20 -33 47 -26 27 -49 49 -49 49 -1
0 -5 -3 -8 -7z m68 -63 c10 -11 16 -20 13 -20 -3 0 -13 9 -23 20 -10 11 -16
20 -13 20 3 0 13 -9 23 -20z"/>
<path d="M4152 987 c-10 -11 -9 -17 2 -26 17 -14 26 -3 17 22 -6 16 -9 17 -19
4z"/>
<path d="M4193 955 c0 -8 4 -12 9 -9 5 3 6 10 3 15 -9 13 -12 11 -12 -6z"/>
<path d="M4114 938 c-14 -22 -12 -46 3 -41 11 4 11 8 1 21 -11 13 -10 15 4 9
12 -4 15 -2 11 9 -6 17 -10 18 -19 2z"/>
<path d="M1030 866 c0 -2 7 -7 16 -10 8 -3 12 -2 9 4 -6 10 -25 14 -25 6z"/>
<path d="M3996 841 c-13 -14 -14 -21 -5 -27 8 -4 10 -3 5 4 -7 12 -4 13 51 15
17 1 29 5 27 9 -3 5 -15 6 -26 2 -11 -3 -24 -1 -27 5 -5 8 -13 5 -25 -8z"/>
<path d="M1095 840 c-8 -13 9 -20 24 -11 10 6 9 10 -3 14 -8 3 -18 2 -21 -3z"/>
<path d="M1145 810 c-3 -5 0 -12 6 -15 6 -4 14 -17 19 -29 7 -16 9 -17 9 -4 1
18 31 14 31 -4 0 -5 -4 -7 -9 -4 -5 3 -12 -1 -15 -9 -4 -13 -2 -13 14 -5 23
12 33 13 26 1 -6 -10 17 -33 30 -30 22 4 35 -2 28 -13 -5 -7 -3 -8 5 -3 7 4 9
10 4 14 -63 54 -143 109 -148 101z m26 -17 c13 -16 12 -17 -3 -4 -10 7 -18 15
-18 17 0 8 8 3 21 -13z m84 -63 c3 -5 2 -10 -4 -10 -5 0 -13 5 -16 10 -3 6 -2
10 4 10 5 0 13 -4 16 -10z"/>
<path d="M4011 804 c0 -11 3 -14 6 -6 3 7 2 16 -1 19 -3 4 -6 -2 -5 -13z"/>
<path d="M3970 805 c0 -5 5 -17 10 -25 5 -8 10 -10 10 -5 0 6 -5 17 -10 25 -5
8 -10 11 -10 5z"/>
<path d="M1130 780 c0 -5 5 -10 11 -10 5 0 7 5 4 10 -3 6 -8 10 -11 10 -2 0
-4 -4 -4 -10z"/>
<path d="M3917 767 c-8 -6 -7 -7 5 -4 9 3 18 1 20 -5 2 -6 8 -5 15 4 10 11 8
14 -8 14 -11 0 -25 -4 -32 -9z"/>
<path d="M3910 740 c0 -5 5 -10 10 -10 6 0 10 5 10 10 0 6 -4 10 -10 10 -5 0
-10 -4 -10 -10z"/>
<path d="M1255 689 c-4 -6 -5 -12 -2 -15 2 -3 7 2 10 11 7 17 1 20 -8 4z"/>
<path d="M1309 643 c-13 -16 -12 -17 4 -4 16 13 21 21 13 21 -2 0 -10 -8 -17
-17z"/>
<path d="M3790 650 c-8 -5 -12 -12 -9 -15 4 -3 12 1 19 10 14 17 11 19 -10 5z"/>
<path d="M1336 633 c-6 -14 -5 -15 5 -6 7 7 10 15 7 18 -3 3 -9 -2 -12 -12z"/>
<path d="M3661 603 c-1 -7 -7 -10 -14 -7 -7 2 -22 -5 -32 -16 -15 -17 -16 -20
-3 -15 9 4 18 1 21 -7 2 -7 3 -5 2 4 -2 10 1 21 6 24 5 3 9 0 9 -7 0 -10 3
-10 11 -2 6 6 9 17 6 25 -4 9 -6 9 -6 1z"/>
<path d="M1550 540 c0 -5 5 -10 11 -10 5 0 7 5 4 10 -3 6 -8 10 -11 10 -2 0
-4 -4 -4 -10z"/>
<path d="M1526 522 c-3 -5 1 -9 9 -9 8 0 12 4 9 9 -3 4 -7 8 -9 8 -2 0 -6 -4
-9 -8z"/>
<path d="M3577 515 c-4 -8 -3 -16 1 -19 4 -3 9 4 9 15 2 23 -3 25 -10 4z"/>
<path d="M1599 504 c-11 -14 7 -14 28 -1 6 4 14 3 18 -3 3 -5 2 -10 -3 -10 -5
0 -9 -7 -9 -15 0 -21 16 -4 21 21 3 16 -1 20 -20 20 -14 0 -29 -5 -35 -12z"/>
<path d="M3402 478 c-5 -8 -6 -22 -1 -33 5 -14 8 -15 9 -5 1 8 3 23 5 33 4 20
1 21 -13 5z"/>
<path d="M3430 450 c0 -5 5 -10 11 -10 5 0 7 5 4 10 -3 6 -8 10 -11 10 -2 0
-4 -4 -4 -10z"/>
<path d="M1790 439 c0 -8 8 -11 27 -8 3 0 10 -6 15 -15 5 -8 15 -13 22 -10 19
7 29 -25 14 -45 -11 -14 -11 -14 4 -3 23 19 17 67 -9 68 -11 1 -27 5 -34 10
-20 12 -39 14 -39 3z"/>
<path d="M3269 433 c-1 -5 -1 -11 0 -16 1 -4 -10 -5 -24 -3 -17 3 -28 0 -32
-10 -3 -8 -9 -14 -15 -14 -5 0 -6 5 -2 12 4 7 3 8 -4 4 -12 -7 -5 -36 8 -36 5
0 11 9 15 20 6 20 24 23 38 5 6 -6 10 -5 14 3 4 10 8 10 20 1 11 -10 14 -10
11 2 -2 9 4 13 17 11 17 -2 16 0 -5 12 -28 17 -39 19 -41 9z m21 -13 c0 -5 -2
-10 -4 -10 -3 0 -8 5 -11 10 -3 6 -1 10 4 10 6 0 11 -4 11 -10z"/>
<path d="M3347 427 c-3 -8 1 -14 9 -14 7 0 11 4 8 8 -2 4 2 10 8 12 8 4 7 6
-3 6 -9 1 -19 -5 -22 -12z"/>
<path d="M1797 409 c7 -7 15 -10 18 -7 3 3 -2 9 -12 12 -14 6 -15 5 -6 -5z"/>
<path d="M3226 382 c-3 -5 1 -9 9 -9 8 0 12 4 9 9 -3 4 -7 8 -9 8 -2 0 -6 -4
-9 -8z"/>
<path d="M1950 371 c0 -7 -5 -9 -12 -5 -7 5 -8 3 -3 -5 5 -9 10 -10 18 -2 6 6
8 14 4 18 -4 3 -7 1 -7 -6z"/>
<path d="M3076 367 c3 -10 9 -15 12 -12 3 3 0 11 -7 18 -10 9 -11 8 -5 -6z"/>
<path d="M2010 356 c0 -2 7 -7 16 -10 8 -3 12 -2 9 4 -6 10 -25 14 -25 6z"/>
<path d="M3095 340 c-3 -5 -1 -10 4 -10 6 0 11 5 11 10 0 6 -2 10 -4 10 -3 0
-8 -4 -11 -10z"/>
<path d="M2200 333 c5 -2 8 -9 4 -14 -3 -5 0 -9 6 -9 15 0 7 23 -8 26 -7 1 -8
0 -2 -3z"/>
<path d="M2235 329 c-4 -6 -5 -12 -2 -15 2 -3 7 2 10 11 7 17 1 20 -8 4z"/>
<path d="M2867 318 c9 -10 19 -15 22 -12 3 4 0 9 -7 11 -6 3 -10 8 -8 12 3 4
-1 8 -9 8 -13 0 -12 -4 2 -19z"/>
<path d="M2926 327 c3 -10 9 -15 12 -12 3 3 0 11 -7 18 -10 9 -11 8 -5 -6z"/>
<path d="M2535 292 c-8 -21 -3 -22 17 -2 14 13 15 17 3 17 -8 0 -17 -7 -20
-15z"/>
<path d="M2235 280 c3 -5 8 -10 11 -10 2 0 4 5 4 10 0 6 -5 10 -11 10 -5 0 -7
-4 -4 -10z"/>
<path d="M2346 278 c3 -5 10 -6 15 -3 13 9 11 12 -6 12 -8 0 -12 -4 -9 -9z"/>
</g>
</svg>
